<?xml version="1.0" encoding="iso-8859-1"?>
<!-- Uploaded to: SVG Repo, www.svgrepo.com, Generator: SVG Repo Mixer Tools -->
<svg fill="#000000" height="800px" width="800px" version="1.1" id="Layer_1" xmlns="http://www.w3.org/2000/svg" xmlns:xlink="http://www.w3.org/1999/xlink" 
	 viewBox="0 0 512 512" xml:space="preserve">
<g>
	<g>
		<g>
			<path d="M493.486,274.852c-2.405-3.763-7.406-4.862-11.165-2.458c-3.762,2.405-4.862,7.404-2.458,11.165
				c10.446,16.344,15.968,35.286,15.968,54.782c0,4.388-0.279,8.712-0.82,12.955c-0.217,1.698-0.474,3.381-0.774,5.052
				c-0.15,0.835-0.309,1.666-0.48,2.495c-9.513,46.371-50.64,81.354-99.782,81.354c-0.003,0-0.006,0-0.01,0
				c-1.209,0-2.413-0.026-3.613-0.068c-0.579-0.021-1.157-0.056-1.735-0.087c-0.591-0.03-1.181-0.059-1.769-0.099
				c-0.799-0.056-1.596-0.125-2.393-0.201c-0.323-0.03-0.646-0.058-0.968-0.091c-0.988-0.102-1.976-0.217-2.96-0.347
				c-0.068-0.009-0.137-0.018-0.205-0.027c-13.414-1.812-26.373-6.281-38.066-13.188c-0.311-0.184-0.636-0.342-0.966-0.482
				c-18.472-11.135-33.31-28.117-41.805-49.158c-1.672-4.139-6.382-6.14-10.523-4.47c-4.14,1.672-6.141,6.383-4.471,10.523
				c4.972,12.316,11.828,23.427,20.145,33.079c-38.732-7.478-73.019-4.624-97.208-0.079c8.286-9.634,15.119-20.718,20.078-33.001
				c1.672-4.14-0.33-8.852-4.47-10.523c-4.138-1.67-8.851,0.331-10.522,4.47c-8.498,21.048-23.342,38.035-41.822,49.168
				c-0.324,0.138-0.643,0.29-0.951,0.471c-11.691,6.907-24.648,11.375-38.062,13.187c-0.07,0.01-0.14,0.018-0.21,0.028
				c-0.982,0.13-1.967,0.245-2.954,0.347c-0.324,0.033-0.651,0.061-0.977,0.092c-0.794,0.074-1.589,0.143-2.385,0.199
				c-0.591,0.041-1.185,0.069-1.777,0.1c-0.576,0.03-1.15,0.066-1.727,0.086c-1.204,0.042-2.412,0.068-3.624,0.068
				c-56.165,0-101.857-45.693-101.857-101.856c0-56.163,45.692-101.856,101.856-101.856h88.932v19.841
				c0,4.466,3.62,8.084,8.084,8.084h38.804c4.466,0,8.084-3.619,8.084-8.084c0-4.465-3.618-8.084-8.084-8.084h-30.72v-11.757h61.44
				v11.757h-6.287c-4.466,0-8.084,3.62-8.084,8.084c0,4.466,3.618,8.084,8.084,8.084h14.372c4.466,0,8.084-3.619,8.084-8.084
				v-19.841h93.244c27.206,0,52.784,10.595,72.022,29.833c3.158,3.156,8.276,3.156,11.433,0c3.157-3.158,3.157-8.276,0-11.433
				c-22.293-22.292-51.931-34.568-83.456-34.568H292.648h-30.72v-29.521c0-18.899,15.375-34.275,34.274-34.275h23.933h17.801h15.849
				c27.814,0,50.442-22.629,50.442-50.443c0-27.814-22.628-50.443-50.442-50.443h-15.849h-17.801h-68.446
				c-4.465,0-8.084,3.62-8.084,8.084c0,4.465,3.62,8.084,8.084,8.084h68.446h17.801h15.849c18.899,0,34.274,15.376,34.274,34.275
				s-15.375,34.275-34.274,34.275h-15.849h-17.801h-23.933c-27.814,0-50.442,22.629-50.442,50.443v29.521h-30.72h-97.016
				C52.945,220.317,0,273.262,0,338.341s52.945,118.024,118.024,118.024c1.395,0,2.787-0.029,4.179-0.079
				c0.649-0.023,1.295-0.064,1.942-0.096c0.698-0.037,1.398-0.069,2.095-0.117c0.898-0.061,1.791-0.141,2.684-0.222
				c0.388-0.036,0.777-0.069,1.165-0.109c1.12-0.113,2.234-0.244,3.347-0.388c0.08-0.011,0.16-0.021,0.239-0.031
				c15.836-2.085,30.812-7.295,44.188-15.141c8.765-3.28,78.008-27.277,156.456,0.111c13.339,7.791,28.262,12.964,44.037,15.036
				c0.078,0.011,0.154,0.021,0.232,0.03c1.108,0.143,2.22,0.274,3.336,0.386c0.389,0.04,0.778,0.073,1.167,0.11
				c0.89,0.081,1.781,0.16,2.675,0.221c0.696,0.049,1.394,0.081,2.09,0.118c0.647,0.033,1.292,0.073,1.941,0.096
				c1.386,0.049,2.774,0.078,4.165,0.078c0.003,0,0.005,0,0.009,0c0,0,0,0,0.001,0c40.673,0,76.608-20.682,97.839-52.082
				c0.53-0.785,1.052-1.577,1.565-2.375c2.049-3.193,3.948-6.491,5.688-9.883C507.334,375.912,512,357.661,512,338.341
				C512,315.753,505.597,293.799,493.486,274.852z"/>
			<path d="M109.406,392.68h2.156c11.589,0,21.019-9.429,21.019-21.019v-11.857h11.857c11.589,0,21.019-9.429,21.019-21.019v-2.156
				c0-11.59-9.429-21.019-21.019-21.019h-11.857v-11.857c0-11.59-9.429-21.019-21.019-21.019h-2.156
				c-11.589,0-21.019,9.429-21.019,21.019v11.857H76.531c-11.589,0-21.019,9.429-21.019,21.019v2.156
				c0,11.59,9.429,21.019,21.019,21.019h11.857v11.857C88.387,383.25,97.817,392.68,109.406,392.68z M76.531,343.636
				c-2.674,0-4.851-2.176-4.851-4.851v-2.156c0-2.674,2.176-4.851,4.851-4.851h19.941c4.465,0,8.084-3.618,8.084-8.084v-19.941
				c0-2.674,2.176-4.851,4.851-4.851h2.156c2.674,0,4.851,2.176,4.851,4.851v19.941c0,4.466,3.62,8.084,8.084,8.084h19.941
				c2.674,0,4.851,2.176,4.851,4.851v2.156c0,2.674-2.176,4.851-4.851,4.851h-19.941c-4.465,0-8.084,3.618-8.084,8.084v19.941
				c0,2.675-2.176,4.851-4.851,4.851h-2.156c-2.674,0-4.851-2.175-4.851-4.851V351.72c0-4.466-3.62-8.084-8.084-8.084H76.531z"/>
			<path d="M390.154,320.939c14.859,0,26.947-12.089,26.947-26.947c0-14.859-12.089-26.947-26.947-26.947
				c-14.859,0-26.947,12.089-26.947,26.947C363.206,308.851,375.295,320.939,390.154,320.939z M390.154,283.213
				c5.944,0,10.779,4.835,10.779,10.779c0,5.944-4.835,10.779-10.779,10.779c-5.943,0-10.779-4.835-10.779-10.779
				C379.375,288.049,384.21,283.213,390.154,283.213z"/>
			<path d="M390.154,408.368c14.859,0,26.947-12.089,26.947-26.947c0-14.859-12.089-26.947-26.947-26.947
				c-14.859,0-26.947,12.089-26.947,26.947C363.206,396.28,375.295,408.368,390.154,408.368z M390.154,370.642
				c5.944,0,10.779,4.835,10.779,10.779c0,5.943-4.835,10.779-10.779,10.779c-5.943,0-10.779-4.835-10.779-10.779
				C379.375,375.479,384.21,370.642,390.154,370.642z"/>
			<path d="M319.491,337.706c0,14.859,12.089,26.947,26.947,26.947c14.859,0,26.947-12.089,26.947-26.947
				c0-14.859-12.089-26.947-26.947-26.947C331.58,310.759,319.491,322.847,319.491,337.706z M357.218,337.706
				c0,5.943-4.835,10.779-10.779,10.779c-5.943,0-10.779-4.835-10.779-10.779c0-5.944,4.835-10.779,10.779-10.779
				S357.218,331.763,357.218,337.706z"/>
			<path d="M460.816,337.706c0-14.859-12.089-26.947-26.947-26.947c-14.859,0-26.947,12.089-26.947,26.947
				c0,14.859,12.089,26.947,26.947,26.947C448.728,364.653,460.816,352.565,460.816,337.706z M423.09,337.706
				c0-5.944,4.835-10.779,10.779-10.779c5.943,0,10.779,4.835,10.779,10.779c0,5.943-4.835,10.779-10.779,10.779
				C427.925,348.485,423.09,343.648,423.09,337.706z"/>
		</g>
	</g>
</g>
</svg>